<svg width="41" height="41" viewBox="0 0 41 41" fill="none" xmlns="http://www.w3.org/2000/svg">
<rect width="41" height="41" fill="#1E1E1E"/>
<g filter="url(#filter0_b_0_1)">
<path d="M-45 -1231C-45 -1239.28 -38.2843 -1246 -30 -1246H1233C1241.28 -1246 1248 -1239.28 1248 -1231V9004.86H-45V-1231Z" fill="black"/>
<g clip-path="url(#clip0_0_1)">
<g clip-path="url(#clip1_0_1)">
<path d="M8.94334 5.9765C7.25445 5.9765 5.74334 6.3765 4.41001 7.1765C3.07668 7.9765 2.01001 9.06539 1.21001 10.4432C0.41001 11.8209 0.0100098 13.2876 0.0100098 14.8432C0.0100098 16.3987 0.387788 17.8432 1.14334 19.1765C1.8989 20.5098 2.8989 21.5765 4.14334 22.3765C5.38779 23.1765 6.81001 23.6209 8.41001 23.7098C8.41001 24.4209 8.32112 25.2209 8.14334 26.1098C7.78779 27.4432 7.12112 28.8209 6.14334 30.2432C5.96557 30.5098 5.96557 30.7765 6.14334 31.0432L9.21001 34.1098C9.2989 34.1987 9.43223 34.2432 9.61001 34.2432C9.78779 34.2432 9.92112 34.1987 10.01 34.1098C12.3211 32.0654 14.1878 29.4876 15.61 26.3765C17.2989 22.6432 18.01 18.7765 17.7433 14.7765C17.5656 12.2876 16.6322 10.1987 14.9433 8.50983C13.2545 6.82094 11.2545 5.9765 8.94334 5.9765ZM9.61001 32.7765C9.52112 32.6876 9.34334 32.4654 9.07668 32.1098L7.47668 30.5098C8.27668 29.2654 8.85445 28.0209 9.21001 26.7765C9.47668 25.7987 9.61001 24.9098 9.61001 24.1098C9.61001 23.4876 9.54334 23.0654 9.41001 22.8432C9.27668 22.6209 9.12112 22.5098 8.94334 22.5098C6.81001 22.5098 4.98779 21.7543 3.47668 20.2432C1.96557 18.7321 1.21001 16.9321 1.21001 14.8432C1.21001 12.7543 1.96557 10.9543 3.47668 9.44316C4.98779 7.93205 6.78779 7.1765 8.87668 7.1765C10.9656 7.1765 12.7211 7.90983 14.1433 9.3765C15.5656 10.8432 16.3656 12.6876 16.5433 14.9098C16.81 19.0876 15.9656 23.0876 14.01 26.9098C12.7656 29.1321 11.2989 31.0876 9.61001 32.7765ZM40.01 14.7765C39.7433 12.2876 38.7878 10.1987 37.1433 8.50983C35.4989 6.82094 33.4767 5.9765 31.0767 5.9765C29.4767 5.9765 27.9878 6.3765 26.61 7.1765C25.2322 7.9765 24.1433 9.06539 23.3433 10.4432C22.5433 11.8209 22.1433 13.2876 22.1433 14.8432C22.1433 16.3987 22.5211 17.8432 23.2767 19.1765C24.0322 20.5098 25.0545 21.5765 26.3433 22.3765C27.6322 23.1765 29.0322 23.6209 30.5433 23.7098C30.6322 24.4209 30.5433 25.2209 30.2767 26.1098C29.9211 27.4432 29.2545 28.8209 28.2767 30.2432C28.0989 30.5098 28.1433 30.7765 28.41 31.0432L31.3433 34.1098C31.5211 34.1987 31.6767 34.2432 31.81 34.2432C31.9433 34.2432 32.0989 34.1987 32.2767 34.1098C34.4989 32.0654 36.3656 29.4876 37.8767 26.3765C39.5656 22.6432 40.2767 18.7765 40.01 14.7765ZM31.8767 32.7765C31.6989 32.5987 31.4767 32.3765 31.21 32.1098L29.61 30.5098C30.41 29.2654 31.0322 28.0209 31.4767 26.7765C31.7433 25.7987 31.8767 24.9098 31.8767 24.1098C31.8767 23.4876 31.81 23.0654 31.6767 22.8432C31.5433 22.6209 31.3433 22.5098 31.0767 22.5098C28.9433 22.5098 27.1433 21.7543 25.6767 20.2432C24.21 18.7321 23.4767 16.9321 23.4767 14.8432C23.4767 12.7543 24.21 10.9543 25.6767 9.44316C27.1433 7.93205 28.9211 7.1765 31.01 7.1765C33.0989 7.1765 34.8545 7.90983 36.2767 9.3765C37.6989 10.8432 38.4989 12.6876 38.6767 14.9098C39.0322 19.0876 38.1878 23.0876 36.1433 26.9098C34.9878 29.1321 33.5656 31.0876 31.8767 32.7765Z" fill="#279EFF"/>
</g>
</g>
</g>
<defs>
<filter id="filter0_b_0_1" x="-75" y="-1276" width="1354" height="10310.9" filterUnits="userSpaceOnUse" color-interpolation-filters="sRGB">
<feFlood flood-opacity="0" result="BackgroundImageFix"/>
<feGaussianBlur in="BackgroundImageFix" stdDeviation="15"/>
<feComposite in2="SourceAlpha" operator="in" result="effect1_backgroundBlur_0_1"/>
<feBlend mode="normal" in="SourceGraphic" in2="effect1_backgroundBlur_0_1" result="shape"/>
</filter>
<clipPath id="clip0_0_1">
<rect width="1203" height="299.94" fill="white" transform="translate(0 0.109863)"/>
</clipPath>
<clipPath id="clip1_0_1">
<rect width="40.02" height="40" fill="white" transform="matrix(1 0 0 -1 0 40.1099)"/>
</clipPath>
</defs>
</svg>
