<svg width="464" height="79" viewBox="0 0 464 79" fill="none" xmlns="http://www.w3.org/2000/svg">
<path d="M413.867 2.39996C408.133 6.13329 402.8 12.9333 395.333 26.4C373.733 65.6 369.2 72 362.933 72C357.733 72 350 62.9333 337.333 41.4666C318.267 9.33329 308.933 1.46662 295.333 6.66662C289.733 8.79996 279.2 19.6 263.333 39.4666C247.467 59.2 241.333 64.8 234.667 66.2666C230.933 66.9333 229.867 66.2666 224.267 60.4C220.8 56.8 214.133 47.3333 209.333 39.3333C198.4 21.0666 191.867 12.9333 186.133 10.1333C173.733 4.26662 165.867 9.59996 144.133 38.6666C128.4 59.7333 120.133 68 114.533 68C108.533 68 101.867 60.5333 89.7333 40.4C64.5333 -1.33338 56.4 -0.933378 23.0667 43.7333C14.6667 55.0666 6 65.2 3.86667 66.5333C1.06667 68 0 69.7333 0 72.2666C0 76.5333 0.266667 76.6666 5.2 74.1333C10.1333 71.4666 17.6 63.2 30.9333 45.2C44.9333 26.4 54.2667 17.3333 59.8667 17.3333C65.0667 17.3333 72.8 26 84 44.8C93.8667 61.2 104.133 72.9333 110.133 74.5333C118.667 76.9333 128.667 70.6666 140.267 55.6C167.867 19.6 171.733 15.6 179.2 15.6C184.4 15.6 190.4 22.4 201.467 40.4C213.067 59.4666 218.533 66.4 224.8 70.1333C238 78 245.333 73.2 274 37.7333C290.267 17.4666 298.4 10.9333 304.933 12.6666C310.533 14 317.6 22.6666 330.4 43.8666C337.067 55.2 345.067 66.5333 349.333 70.9333C355.867 77.7333 357.467 78.6666 361.867 78.6666C371.867 78.6666 379.333 70.8 392 47.3333C407.2 19.2 415.2 7.99996 420.133 7.99996C427.2 7.99996 440.933 28.2666 455.467 60C458.933 67.7333 462.267 74.5333 462.933 75.2C463.467 76 464 73.0666 464 68.9333C464 62.2666 462.933 59.2 455.867 44.9333C437.333 7.99996 425.067 -4.53338 413.867 2.39996Z" fill="#E6FF00"/>
</svg>
